<svg id="visual" viewBox="0 0 960 540" width="960" height="540" xmlns="http://www.w3.org/2000/svg" xmlns:xlink="http://www.w3.org/1999/xlink" version="1.1"><rect x="0" y="0" width="960" height="540" fill="#002233"></rect><path d="M0 156L6 181.7C12 207.3 24 258.7 35.8 274.2C47.7 289.7 59.3 269.3 71.2 256.8C83 244.3 95 239.7 106.8 233.5C118.7 227.3 130.3 219.7 142.2 253.7C154 287.7 166 363.3 177.8 395.8C189.7 428.3 201.3 417.7 213.2 372.2C225 326.7 237 246.3 248.8 211.2C260.7 176 272.3 186 284.2 224.5C296 263 308 330 320 331.3C332 332.7 344 268.3 355.8 242.5C367.7 216.7 379.3 229.3 391.2 242.8C403 256.3 415 270.7 426.8 265.5C438.7 260.3 450.3 235.7 462.2 264.3C474 293 486 375 497.8 385.8C509.7 396.7 521.3 336.3 533.2 325.8C545 315.3 557 354.7 568.8 328.3C580.7 302 592.3 210 604.2 185.8C616 161.7 628 205.3 640 239.2C652 273 664 297 675.8 314.8C687.7 332.7 699.3 344.3 711.2 367.7C723 391 735 426 746.8 410.7C758.7 395.3 770.3 329.7 782.2 287.5C794 245.3 806 226.7 817.8 249.5C829.7 272.3 841.3 336.7 853.2 356.5C865 376.3 877 351.7 888.8 310.8C900.7 270 912.3 213 924.2 204.3C936 195.7 948 235.3 954 255.2L960 275L960 541L954 541C948 541 936 541 924.2 541C912.3 541 900.7 541 888.8 541C877 541 865 541 853.2 541C841.3 541 829.7 541 817.8 541C806 541 794 541 782.2 541C770.3 541 758.7 541 746.8 541C735 541 723 541 711.2 541C699.3 541 687.7 541 675.8 541C664 541 652 541 640 541C628 541 616 541 604.2 541C592.3 541 580.7 541 568.8 541C557 541 545 541 533.2 541C521.3 541 509.7 541 497.8 541C486 541 474 541 462.2 541C450.3 541 438.7 541 426.8 541C415 541 403 541 391.2 541C379.3 541 367.7 541 355.8 541C344 541 332 541 320 541C308 541 296 541 284.2 541C272.3 541 260.7 541 248.8 541C237 541 225 541 213.2 541C201.3 541 189.7 541 177.8 541C166 541 154 541 142.2 541C130.3 541 118.7 541 106.8 541C95 541 83 541 71.2 541C59.3 541 47.7 541 35.8 541C24 541 12 541 6 541L0 541Z" fill="#0066FF" stroke-linecap="round" stroke-linejoin="miter"></path></svg>